<?xml version="1.0" encoding="utf-8"?>
<!-- Generator: Adobe Illustrator 22.1.0, SVG Export Plug-In . SVG Version: 6.00 Build 0)  -->
<svg version="1.1" id="Ebene_1" xmlns="http://www.w3.org/2000/svg" xmlns:xlink="http://www.w3.org/1999/xlink" x="0px" y="0px"
	 viewBox="0 0 283.5 311.8" style="enable-background:new 0 0 283.5 311.8;" xml:space="preserve">
<g>
	<path d="M22.7,51.4H89v22.5H49.6v19.4h33.8v22.5H49.6V153H22.7V51.4z"/>
	<path d="M206.3,73.9h-26.9V51.4h80.7v22.5h-26.9V153h-26.9V73.9z"/>
	<path d="M72.3,157.5c13.4,0,24.9,6.2,32.5,13.4l-15.4,16.5c-5.2-4.4-9.8-6.8-16.7-6.8c-12.8,0-23.6,10.9-23.6,29.3
		c0,19,9.2,29.6,22.9,29.6c8.2,0,14.1-3.4,18.7-8.1l15.4,16.2c-9,10-21.3,14.9-34.4,14.9c-27.9,0-51.5-17.1-51.5-51.7
		C20.2,176.8,44.7,157.5,72.3,157.5z"/>
	<path d="M110.4,158.9h26.9V238h38.5v22.5h-65.3V158.9z"/>
	<path d="M181.4,159.3h37.1c21.5,0,39,5.3,39,25.3c0,8.8-5.1,18.8-17.1,21.9v0.6c14.6,2.8,21.9,10.3,21.9,23.8
		c0,20.9-18.4,30-40.6,30h-40.2V159.3z M217.9,199.4c8.9,0,13-4.4,13-10.6c0-6.3-4.1-8.8-13-8.8h-9.2v19.4H217.9z M219.8,240.3
		c10.8,0,15.8-4.1,15.8-11.6c0-7.5-5.1-10.6-15.8-10.6h-11.1v22.2H219.8z"/>
	<rect x="22.7" y="22.8" width="238.1" height="22.5"/>
	<rect x="22.7" y="266.6" width="238.1" height="22.5"/>
	<path d="M142.6,49.8c14.6,0,25.7,6.2,33,13.4l-14.9,16.5c-5.1-4.4-9.5-6.8-17.7-6.8c-13.9,0-24.4,10.9-24.4,29.3
		c0,19,8.6,29.6,26.9,29.6c2.9,0,6-0.6,7.9-1.9v-14h-15.2V94h39.3v48.2c-7.6,6.2-20.9,12.4-35.5,12.4c-28.2,0-51.3-17.1-51.3-51.7
		C90.6,69.1,114.4,49.8,142.6,49.8z"/>
</g>
</svg>
